<svg xmlns="http://www.w3.org/2000/svg" viewBox="0 0 480 120" fill="none">
  <defs>
    <linearGradient id="grad1" x1="0%" y1="0%" x2="100%" y2="100%">
      <stop offset="0%" style="stop-color:#4B8BF5;stop-opacity:1" />
      <stop offset="100%" style="stop-color:#326CE5;stop-opacity:1" />
    </linearGradient>
    <linearGradient id="grad2" x1="0%" y1="0%" x2="100%" y2="100%">
      <stop offset="0%" style="stop-color:#00E5B8;stop-opacity:1" />
      <stop offset="100%" style="stop-color:#00D4AA;stop-opacity:1" />
    </linearGradient>
  </defs>

  <!-- Hexagonal K8s-inspired icon -->
  <g transform="translate(60, 60)">
    <!-- Outer hexagon -->
    <polygon points="0,-42 36.4,-21 36.4,21 0,42 -36.4,21 -36.4,-21" fill="url(#grad1)" />
    <!-- Inner hexagon -->
    <polygon points="0,-30 26,-15 26,15 0,30 -26,15 -26,-15" fill="#fff" fill-opacity="0.15" />

    <!-- Stylized "what-if" branching arrows -->
    <line x1="0" y1="16" x2="0" y2="-8" stroke="#fff" stroke-width="3.5" stroke-linecap="round"/>
    <line x1="0" y1="-8" x2="-14" y2="-22" stroke="#fff" stroke-width="3" stroke-linecap="round"/>
    <line x1="0" y1="-8" x2="14" y2="-22" stroke="#fff" stroke-width="3" stroke-linecap="round"/>
    <circle cx="-14" cy="-22" r="4.5" fill="#00E5B8"/>
    <circle cx="14" cy="-22" r="4.5" fill="#F5A623"/>
    <circle cx="0" cy="16" r="4.5" fill="#fff"/>
    <circle cx="0" cy="-2" r="18" stroke="#fff" stroke-width="1.5" stroke-dasharray="4,3" fill="none" opacity="0.5"/>
  </g>

  <!-- Wordmark -->
  <g transform="translate(115, 48)">
    <text font-family="system-ui, -apple-system, 'Segoe UI', Helvetica, Arial, sans-serif" font-size="44" font-weight="700" fill="#F1F5F9">
      <tspan>Kube</tspan><tspan fill="url(#grad2)">Wise</tspan>
    </text>
  </g>

  <!-- Tagline -->
  <text x="117" y="82" font-family="system-ui, -apple-system, 'Segoe UI', Helvetica, Arial, sans-serif" font-size="14" font-weight="400" fill="#94A3B8" letter-spacing="0.5">
    Kubernetes what-if cost simulator
  </text>
</svg>
